<?xml version="1.0" encoding="UTF-8" standalone="no"?>
<!DOCTYPE svg PUBLIC "-//W3C//DTD SVG 1.1//EN"
 "http://www.w3.org/Graphics/SVG/1.1/DTD/svg11.dtd">
<!-- Generated by graphviz version 2.40.1 (20161225.0304)
 -->
<!-- Title: dependencies Pages: 1 -->
<svg width="2723pt" height="284pt"
 viewBox="0.00 0.00 2723.00 284.00" xmlns="http://www.w3.org/2000/svg" xmlns:xlink="http://www.w3.org/1999/xlink">
<g id="graph0" class="graph" transform="scale(1 1) rotate(0) translate(4 280)">
<title>dependencies</title>
<polygon fill="#ffffff" stroke="transparent" points="-4,4 -4,-280 2719,-280 2719,4 -4,4"/>
<text text-anchor="start" x="1336.5091" y="-42.4" font-family="sans-serif" font-weight="bold" font-size="14.00" fill="#000000">Legend</text>
<polygon fill="#ffffb3" stroke="transparent" points="1123.5,-10 1123.5,-30 1143.5,-30 1143.5,-10 1123.5,-10"/>
<text text-anchor="start" x="1147.129" y="-15.4" font-family="sans-serif" font-size="14.00" fill="#000000"> &#160;Declarations</text>
<polygon fill="#8dd3c7" stroke="transparent" points="1236.5,-10 1236.5,-30 1256.5,-30 1256.5,-10 1236.5,-10"/>
<text text-anchor="start" x="1260.2251" y="-15.4" font-family="sans-serif" font-size="14.00" fill="#000000"> &#160;Module</text>
<polygon fill="#80b1d3" stroke="transparent" points="1322.5,-10 1322.5,-30 1342.5,-30 1342.5,-10 1322.5,-10"/>
<text text-anchor="start" x="1346.2812" y="-15.4" font-family="sans-serif" font-size="14.00" fill="#000000"> &#160;Bootstrap</text>
<polygon fill="#fdb462" stroke="transparent" points="1419.5,-10 1419.5,-30 1439.5,-30 1439.5,-10 1419.5,-10"/>
<text text-anchor="start" x="1443.1732" y="-15.4" font-family="sans-serif" font-size="14.00" fill="#000000"> &#160;Providers</text>
<polygon fill="#fb8072" stroke="transparent" points="1515.5,-10 1515.5,-30 1535.5,-30 1535.5,-10 1515.5,-10"/>
<text text-anchor="start" x="1539.2258" y="-15.4" font-family="sans-serif" font-size="14.00" fill="#000000"> &#160;Exports</text>
<g id="clust1" class="cluster">
<title>cluster_NgxAmapModule</title>
<polygon fill="none" stroke="#000000" stroke-dasharray="1,5" points="8,-70 8,-268 2707,-268 2707,-70 8,-70"/>
</g>
<g id="clust2" class="cluster">
<title>cluster_NgxAmapModule_declarations</title>
<polygon fill="none" stroke="#000000" points="44,-78 44,-130 2672,-130 2672,-78 44,-78"/>
</g>
<g id="clust19" class="cluster">
<title>cluster_NgxAmapModule_exports</title>
<polygon fill="none" stroke="#000000" points="16,-208 16,-260 2699,-260 2699,-208 16,-208"/>
</g>
<!-- AmapAutocompleteDirective -->
<g id="node1" class="node">
<title>AmapAutocompleteDirective</title>
<polygon fill="#ffffb3" stroke="#000000" points="2663.6078,-122 2482.3922,-122 2482.3922,-86 2663.6078,-86 2663.6078,-122"/>
<text text-anchor="middle" x="2573" y="-99.8" font-family="Times,serif" font-size="14.00" fill="#000000">AmapAutocompleteDirective</text>
</g>
<!-- NgxAmapModule -->
<g id="node16" class="node">
<title>NgxAmapModule</title>
<polygon fill="#8dd3c7" stroke="#000000" points="1349.8683,-187 1346.8683,-191 1325.8683,-191 1322.8683,-187 1232.1317,-187 1232.1317,-151 1349.8683,-151 1349.8683,-187"/>
<text text-anchor="middle" x="1291" y="-164.8" font-family="Times,serif" font-size="14.00" fill="#000000">NgxAmapModule</text>
</g>
<!-- AmapAutocompleteDirective&#45;&gt;NgxAmapModule -->
<g id="edge1" class="edge">
<title>AmapAutocompleteDirective&#45;&gt;NgxAmapModule</title>
<path fill="none" stroke="#000000" d="M2496.3577,-122.1686C2496.3577,-141.0898 2496.3577,-168 2496.3577,-168 2496.3577,-168 1359.9529,-168 1359.9529,-168"/>
<polygon fill="#000000" stroke="#000000" points="1359.9529,-164.5001 1349.9529,-168 1359.9528,-171.5001 1359.9529,-164.5001"/>
</g>
<!-- AmapBezierCurveDirective -->
<g id="node2" class="node">
<title>AmapBezierCurveDirective</title>
<polygon fill="#ffffb3" stroke="#000000" points="2464.538,-122 2291.462,-122 2291.462,-86 2464.538,-86 2464.538,-122"/>
<text text-anchor="middle" x="2378" y="-99.8" font-family="Times,serif" font-size="14.00" fill="#000000">AmapBezierCurveDirective</text>
</g>
<!-- AmapBezierCurveDirective&#45;&gt;NgxAmapModule -->
<g id="edge2" class="edge">
<title>AmapBezierCurveDirective&#45;&gt;NgxAmapModule</title>
<path fill="none" stroke="#000000" d="M2301.866,-122.2667C2301.866,-140.5552 2301.866,-166 2301.866,-166 2301.866,-166 1360.0885,-166 1360.0885,-166"/>
<polygon fill="#000000" stroke="#000000" points="1360.0886,-162.5001 1350.0885,-166 1360.0885,-169.5001 1360.0886,-162.5001"/>
</g>
<!-- AmapCircleDirective -->
<g id="node3" class="node">
<title>AmapCircleDirective</title>
<polygon fill="#ffffb3" stroke="#000000" points="2273.0031,-122 2136.9969,-122 2136.9969,-86 2273.0031,-86 2273.0031,-122"/>
<text text-anchor="middle" x="2205" y="-99.8" font-family="Times,serif" font-size="14.00" fill="#000000">AmapCircleDirective</text>
</g>
<!-- AmapCircleDirective&#45;&gt;NgxAmapModule -->
<g id="edge3" class="edge">
<title>AmapCircleDirective&#45;&gt;NgxAmapModule</title>
<path fill="none" stroke="#000000" d="M2144.8739,-122.0225C2144.8739,-139.3734 2144.8739,-163 2144.8739,-163 2144.8739,-163 1360.0271,-163 1360.0271,-163"/>
<polygon fill="#000000" stroke="#000000" points="1360.0271,-159.5001 1350.0271,-163 1360.0271,-166.5001 1360.0271,-159.5001"/>
</g>
<!-- AmapCircleMarkerDirective -->
<g id="node4" class="node">
<title>AmapCircleMarkerDirective</title>
<polygon fill="#ffffb3" stroke="#000000" points="2118.6975,-122 1941.3025,-122 1941.3025,-86 2118.6975,-86 2118.6975,-122"/>
<text text-anchor="middle" x="2030" y="-99.8" font-family="Times,serif" font-size="14.00" fill="#000000">AmapCircleMarkerDirective</text>
</g>
<!-- AmapCircleMarkerDirective&#45;&gt;NgxAmapModule -->
<g id="edge4" class="edge">
<title>AmapCircleMarkerDirective&#45;&gt;NgxAmapModule</title>
<path fill="none" stroke="#000000" d="M1947.2764,-122.0352C1947.2764,-138.7344 1947.2764,-161 1947.2764,-161 1947.2764,-161 1360.1074,-161 1360.1074,-161"/>
<polygon fill="#000000" stroke="#000000" points="1360.1074,-157.5001 1350.1074,-161 1360.1073,-164.5001 1360.1074,-157.5001"/>
</g>
<!-- AmapEllipseDirective -->
<g id="node5" class="node">
<title>AmapEllipseDirective</title>
<polygon fill="#ffffb3" stroke="#000000" points="1923.6783,-122 1782.3217,-122 1782.3217,-86 1923.6783,-86 1923.6783,-122"/>
<text text-anchor="middle" x="1853" y="-99.8" font-family="Times,serif" font-size="14.00" fill="#000000">AmapEllipseDirective</text>
</g>
<!-- AmapEllipseDirective&#45;&gt;NgxAmapModule -->
<g id="edge5" class="edge">
<title>AmapEllipseDirective&#45;&gt;NgxAmapModule</title>
<path fill="none" stroke="#000000" d="M1786.5359,-122.0091C1786.5359,-138.0494 1786.5359,-159 1786.5359,-159 1786.5359,-159 1360.281,-159 1360.281,-159"/>
<polygon fill="#000000" stroke="#000000" points="1360.281,-155.5001 1350.281,-159 1360.281,-162.5001 1360.281,-155.5001"/>
</g>
<!-- AmapHeatmapDirective -->
<g id="node6" class="node">
<title>AmapHeatmapDirective</title>
<polygon fill="#ffffb3" stroke="#000000" points="1764.3263,-122 1611.6737,-122 1611.6737,-86 1764.3263,-86 1764.3263,-122"/>
<text text-anchor="middle" x="1688" y="-99.8" font-family="Times,serif" font-size="14.00" fill="#000000">AmapHeatmapDirective</text>
</g>
<!-- AmapHeatmapDirective&#45;&gt;NgxAmapModule -->
<g id="edge6" class="edge">
<title>AmapHeatmapDirective&#45;&gt;NgxAmapModule</title>
<path fill="none" stroke="#000000" d="M1714.8877,-122.1871C1714.8877,-137.1824 1714.8877,-156 1714.8877,-156 1714.8877,-156 1359.9398,-156 1359.9398,-156"/>
<polygon fill="#000000" stroke="#000000" points="1359.9398,-152.5001 1349.9398,-156 1359.9397,-159.5001 1359.9398,-152.5001"/>
</g>
<!-- AmapInfoWindowComponent -->
<g id="node7" class="node">
<title>AmapInfoWindowComponent</title>
<polygon fill="#ffffb3" stroke="#000000" points="1593.5772,-122 1406.4228,-122 1406.4228,-86 1593.5772,-86 1593.5772,-122"/>
<text text-anchor="middle" x="1500" y="-99.8" font-family="Times,serif" font-size="14.00" fill="#000000">AmapInfoWindowComponent</text>
</g>
<!-- AmapInfoWindowComponent&#45;&gt;NgxAmapModule -->
<g id="edge7" class="edge">
<title>AmapInfoWindowComponent&#45;&gt;NgxAmapModule</title>
<path fill="none" stroke="#000000" d="M1531.5962,-122.0511C1531.5962,-136.373 1531.5962,-154 1531.5962,-154 1531.5962,-154 1360.1646,-154 1360.1646,-154"/>
<polygon fill="#000000" stroke="#000000" points="1360.1646,-150.5001 1350.1646,-154 1360.1646,-157.5001 1360.1646,-150.5001"/>
</g>
<!-- AmapMarkerClustererDirective -->
<g id="node8" class="node">
<title>AmapMarkerClustererDirective</title>
<polygon fill="#ffffb3" stroke="#000000" points="1388.3025,-122 1193.6975,-122 1193.6975,-86 1388.3025,-86 1388.3025,-122"/>
<text text-anchor="middle" x="1291" y="-99.8" font-family="Times,serif" font-size="14.00" fill="#000000">AmapMarkerClustererDirective</text>
</g>
<!-- AmapMarkerClustererDirective&#45;&gt;NgxAmapModule -->
<g id="edge8" class="edge">
<title>AmapMarkerClustererDirective&#45;&gt;NgxAmapModule</title>
<path fill="none" stroke="#000000" d="M1291,-122.1061C1291,-122.1061 1291,-140.991 1291,-140.991"/>
<polygon fill="#000000" stroke="#000000" points="1287.5001,-140.9909 1291,-150.991 1294.5001,-140.991 1287.5001,-140.9909"/>
</g>
<!-- AmapMarkerDirective -->
<g id="node9" class="node">
<title>AmapMarkerDirective</title>
<polygon fill="#ffffb3" stroke="#000000" points="1175.9904,-122 1032.0096,-122 1032.0096,-86 1175.9904,-86 1175.9904,-122"/>
<text text-anchor="middle" x="1104" y="-99.8" font-family="Times,serif" font-size="14.00" fill="#000000">AmapMarkerDirective</text>
</g>
<!-- AmapMarkerDirective&#45;&gt;NgxAmapModule -->
<g id="edge9" class="edge">
<title>AmapMarkerDirective&#45;&gt;NgxAmapModule</title>
<path fill="none" stroke="#000000" d="M1126.4149,-122.0511C1126.4149,-136.373 1126.4149,-154 1126.4149,-154 1126.4149,-154 1222.0459,-154 1222.0459,-154"/>
<polygon fill="#000000" stroke="#000000" points="1222.0459,-157.5001 1232.0459,-154 1222.0459,-150.5001 1222.0459,-157.5001"/>
</g>
<!-- AmapPolygonDirective -->
<g id="node10" class="node">
<title>AmapPolygonDirective</title>
<polygon fill="#ffffb3" stroke="#000000" points="1014.4678,-122 865.5322,-122 865.5322,-86 1014.4678,-86 1014.4678,-122"/>
<text text-anchor="middle" x="940" y="-99.8" font-family="Times,serif" font-size="14.00" fill="#000000">AmapPolygonDirective</text>
</g>
<!-- AmapPolygonDirective&#45;&gt;NgxAmapModule -->
<g id="edge10" class="edge">
<title>AmapPolygonDirective&#45;&gt;NgxAmapModule</title>
<path fill="none" stroke="#000000" d="M960.6613,-122.1871C960.6613,-137.1824 960.6613,-156 960.6613,-156 960.6613,-156 1221.9421,-156 1221.9421,-156"/>
<polygon fill="#000000" stroke="#000000" points="1221.9421,-159.5001 1231.9421,-156 1221.942,-152.5001 1221.9421,-159.5001"/>
</g>
<!-- AmapPolylineDirective -->
<g id="node11" class="node">
<title>AmapPolylineDirective</title>
<polygon fill="#ffffb3" stroke="#000000" points="847.4636,-122 698.5364,-122 698.5364,-86 847.4636,-86 847.4636,-122"/>
<text text-anchor="middle" x="773" y="-99.8" font-family="Times,serif" font-size="14.00" fill="#000000">AmapPolylineDirective</text>
</g>
<!-- AmapPolylineDirective&#45;&gt;NgxAmapModule -->
<g id="edge11" class="edge">
<title>AmapPolylineDirective&#45;&gt;NgxAmapModule</title>
<path fill="none" stroke="#000000" d="M842.8568,-122.0091C842.8568,-138.0494 842.8568,-159 842.8568,-159 842.8568,-159 1221.9523,-159 1221.9523,-159"/>
<polygon fill="#000000" stroke="#000000" points="1221.9523,-162.5001 1231.9523,-159 1221.9522,-155.5001 1221.9523,-162.5001"/>
</g>
<!-- AmapRectangleDirective -->
<g id="node12" class="node">
<title>AmapRectangleDirective</title>
<polygon fill="#ffffb3" stroke="#000000" points="680.271,-122 521.729,-122 521.729,-86 680.271,-86 680.271,-122"/>
<text text-anchor="middle" x="601" y="-99.8" font-family="Times,serif" font-size="14.00" fill="#000000">AmapRectangleDirective</text>
</g>
<!-- AmapRectangleDirective&#45;&gt;NgxAmapModule -->
<g id="edge12" class="edge">
<title>AmapRectangleDirective&#45;&gt;NgxAmapModule</title>
<path fill="none" stroke="#000000" d="M674.0104,-122.0352C674.0104,-138.7344 674.0104,-161 674.0104,-161 674.0104,-161 1222.1199,-161 1222.1199,-161"/>
<polygon fill="#000000" stroke="#000000" points="1222.12,-164.5001 1232.1199,-161 1222.1199,-157.5001 1222.12,-164.5001"/>
</g>
<!-- AmapTextDirective -->
<g id="node13" class="node">
<title>AmapTextDirective</title>
<polygon fill="#ffffb3" stroke="#000000" points="503.9524,-122 376.0476,-122 376.0476,-86 503.9524,-86 503.9524,-122"/>
<text text-anchor="middle" x="440" y="-99.8" font-family="Times,serif" font-size="14.00" fill="#000000">AmapTextDirective</text>
</g>
<!-- AmapTextDirective&#45;&gt;NgxAmapModule -->
<g id="edge13" class="edge">
<title>AmapTextDirective&#45;&gt;NgxAmapModule</title>
<path fill="none" stroke="#000000" d="M495.8512,-122.0225C495.8512,-139.3734 495.8512,-163 495.8512,-163 495.8512,-163 1221.8842,-163 1221.8842,-163"/>
<polygon fill="#000000" stroke="#000000" points="1221.8843,-166.5001 1231.8842,-163 1221.8842,-159.5001 1221.8843,-166.5001"/>
</g>
<!-- AmapToolBarDirective -->
<g id="node14" class="node">
<title>AmapToolBarDirective</title>
<polygon fill="#ffffb3" stroke="#000000" points="358.4496,-122 209.5504,-122 209.5504,-86 358.4496,-86 358.4496,-122"/>
<text text-anchor="middle" x="284" y="-99.8" font-family="Times,serif" font-size="14.00" fill="#000000">AmapToolBarDirective</text>
</g>
<!-- AmapToolBarDirective&#45;&gt;NgxAmapModule -->
<g id="edge14" class="edge">
<title>AmapToolBarDirective&#45;&gt;NgxAmapModule</title>
<path fill="none" stroke="#000000" d="M347.2493,-122.2667C347.2493,-140.5552 347.2493,-166 347.2493,-166 347.2493,-166 1221.9642,-166 1221.9642,-166"/>
<polygon fill="#000000" stroke="#000000" points="1221.9642,-169.5001 1231.9642,-166 1221.9641,-162.5001 1221.9642,-169.5001"/>
</g>
<!-- NgxAmapComponent -->
<g id="node15" class="node">
<title>NgxAmapComponent</title>
<polygon fill="#ffffb3" stroke="#000000" points="191.6512,-122 52.3488,-122 52.3488,-86 191.6512,-86 191.6512,-122"/>
<text text-anchor="middle" x="122" y="-99.8" font-family="Times,serif" font-size="14.00" fill="#000000">NgxAmapComponent</text>
</g>
<!-- NgxAmapComponent&#45;&gt;NgxAmapModule -->
<g id="edge15" class="edge">
<title>NgxAmapComponent&#45;&gt;NgxAmapModule</title>
<path fill="none" stroke="#000000" d="M176.6753,-122.1686C176.6753,-141.0898 176.6753,-168 176.6753,-168 176.6753,-168 1221.8758,-168 1221.8758,-168"/>
<polygon fill="#000000" stroke="#000000" points="1221.8759,-171.5001 1231.8758,-168 1221.8758,-164.5001 1221.8759,-171.5001"/>
</g>
<!-- AmapAutocompleteDirective  -->
<g id="node17" class="node">
<title>AmapAutocompleteDirective </title>
<polygon fill="#fb8072" stroke="#000000" points="2690.6074,-252 2505.3926,-252 2505.3926,-216 2690.6074,-216 2690.6074,-252"/>
<text text-anchor="middle" x="2598" y="-229.8" font-family="Times,serif" font-size="14.00" fill="#000000">AmapAutocompleteDirective </text>
</g>
<!-- NgxAmapModule&#45;&gt;AmapAutocompleteDirective  -->
<g id="edge16" class="edge">
<title>NgxAmapModule&#45;&gt;AmapAutocompleteDirective </title>
<path fill="none" stroke="#000000" stroke-dasharray="5,2" d="M1349.9459,-171C1603.0168,-171 2584.625,-171 2584.625,-171 2584.625,-171 2584.625,-205.7778 2584.625,-205.7778"/>
<polygon fill="#000000" stroke="#000000" points="2581.1251,-205.7778 2584.625,-215.7778 2588.1251,-205.7778 2581.1251,-205.7778"/>
</g>
<!-- AmapBezierCurveDirective  -->
<g id="node18" class="node">
<title>AmapBezierCurveDirective </title>
<polygon fill="#fb8072" stroke="#000000" points="2487.0386,-252 2310.9614,-252 2310.9614,-216 2487.0386,-216 2487.0386,-252"/>
<text text-anchor="middle" x="2399" y="-229.8" font-family="Times,serif" font-size="14.00" fill="#000000">AmapBezierCurveDirective </text>
</g>
<!-- NgxAmapModule&#45;&gt;AmapBezierCurveDirective  -->
<g id="edge17" class="edge">
<title>NgxAmapModule&#45;&gt;AmapBezierCurveDirective </title>
<path fill="none" stroke="#000000" stroke-dasharray="5,2" d="M1349.9593,-173C1577.7396,-173 2387.625,-173 2387.625,-173 2387.625,-173 2387.625,-205.698 2387.625,-205.698"/>
<polygon fill="#000000" stroke="#000000" points="2384.1251,-205.698 2387.625,-215.698 2391.1251,-205.698 2384.1251,-205.698"/>
</g>
<!-- AmapCircleDirective  -->
<g id="node19" class="node">
<title>AmapCircleDirective </title>
<polygon fill="#fb8072" stroke="#000000" points="2293.0022,-252 2152.9978,-252 2152.9978,-216 2293.0022,-216 2293.0022,-252"/>
<text text-anchor="middle" x="2223" y="-229.8" font-family="Times,serif" font-size="14.00" fill="#000000">AmapCircleDirective </text>
</g>
<!-- NgxAmapModule&#45;&gt;AmapCircleDirective  -->
<g id="edge18" class="edge">
<title>NgxAmapModule&#45;&gt;AmapCircleDirective </title>
<path fill="none" stroke="#000000" stroke-dasharray="5,2" d="M1350.0858,-175C1553.6085,-175 2213.125,-175 2213.125,-175 2213.125,-175 2213.125,-205.9775 2213.125,-205.9775"/>
<polygon fill="#000000" stroke="#000000" points="2209.6251,-205.9774 2213.125,-215.9775 2216.6251,-205.9775 2209.6251,-205.9774"/>
</g>
<!-- AmapCircleMarkerDirective  -->
<g id="node20" class="node">
<title>AmapCircleMarkerDirective </title>
<polygon fill="#fb8072" stroke="#000000" points="2134.6973,-252 1953.3027,-252 1953.3027,-216 2134.6973,-216 2134.6973,-252"/>
<text text-anchor="middle" x="2044" y="-229.8" font-family="Times,serif" font-size="14.00" fill="#000000">AmapCircleMarkerDirective </text>
</g>
<!-- NgxAmapModule&#45;&gt;AmapCircleMarkerDirective  -->
<g id="edge19" class="edge">
<title>NgxAmapModule&#45;&gt;AmapCircleMarkerDirective </title>
<path fill="none" stroke="#000000" stroke-dasharray="5,2" d="M1350.0915,-178C1526.3294,-178 2036.125,-178 2036.125,-178 2036.125,-178 2036.125,-205.973 2036.125,-205.973"/>
<polygon fill="#000000" stroke="#000000" points="2032.6251,-205.973 2036.125,-215.973 2039.6251,-205.973 2032.6251,-205.973"/>
</g>
<!-- AmapEllipseDirective  -->
<g id="node21" class="node">
<title>AmapEllipseDirective </title>
<polygon fill="#fb8072" stroke="#000000" points="1935.1786,-252 1790.8214,-252 1790.8214,-216 1935.1786,-216 1935.1786,-252"/>
<text text-anchor="middle" x="1863" y="-229.8" font-family="Times,serif" font-size="14.00" fill="#000000">AmapEllipseDirective </text>
</g>
<!-- NgxAmapModule&#45;&gt;AmapEllipseDirective  -->
<g id="edge20" class="edge">
<title>NgxAmapModule&#45;&gt;AmapEllipseDirective </title>
<path fill="none" stroke="#000000" stroke-dasharray="5,2" d="M1349.9832,-180C1494.9819,-180 1857.125,-180 1857.125,-180 1857.125,-180 1857.125,-205.7181 1857.125,-205.7181"/>
<polygon fill="#000000" stroke="#000000" points="1853.6251,-205.718 1857.125,-215.7181 1860.6251,-205.7181 1853.6251,-205.718"/>
</g>
<!-- AmapHeatmapDirective  -->
<g id="node22" class="node">
<title>AmapHeatmapDirective </title>
<polygon fill="#fb8072" stroke="#000000" points="1772.3265,-252 1615.6735,-252 1615.6735,-216 1772.3265,-216 1772.3265,-252"/>
<text text-anchor="middle" x="1694" y="-229.8" font-family="Times,serif" font-size="14.00" fill="#000000">AmapHeatmapDirective </text>
</g>
<!-- NgxAmapModule&#45;&gt;AmapHeatmapDirective  -->
<g id="edge21" class="edge">
<title>NgxAmapModule&#45;&gt;AmapHeatmapDirective </title>
<path fill="none" stroke="#000000" stroke-dasharray="5,2" d="M1349.9059,-183C1455.3315,-183 1665.3623,-183 1665.3623,-183 1665.3623,-183 1665.3623,-205.8757 1665.3623,-205.8757"/>
<polygon fill="#000000" stroke="#000000" points="1661.8624,-205.8757 1665.3623,-215.8757 1668.8624,-205.8757 1661.8624,-205.8757"/>
</g>
<!-- AmapInfoWindowComponent  -->
<g id="node23" class="node">
<title>AmapInfoWindowComponent </title>
<polygon fill="#fb8072" stroke="#000000" points="1598.0777,-252 1407.9223,-252 1407.9223,-216 1598.0777,-216 1598.0777,-252"/>
<text text-anchor="middle" x="1503" y="-229.8" font-family="Times,serif" font-size="14.00" fill="#000000">AmapInfoWindowComponent </text>
</g>
<!-- NgxAmapModule&#45;&gt;AmapInfoWindowComponent  -->
<g id="edge22" class="edge">
<title>NgxAmapModule&#45;&gt;AmapInfoWindowComponent </title>
<path fill="none" stroke="#000000" stroke-dasharray="5,2" d="M1349.9931,-185C1402.031,-185 1469.6538,-185 1469.6538,-185 1469.6538,-185 1469.6538,-205.7542 1469.6538,-205.7542"/>
<polygon fill="#000000" stroke="#000000" points="1466.1539,-205.7542 1469.6538,-215.7542 1473.1539,-205.7542 1466.1539,-205.7542"/>
</g>
<!-- AmapMarkerClustererDirective  -->
<g id="node24" class="node">
<title>AmapMarkerClustererDirective </title>
<polygon fill="#fb8072" stroke="#000000" points="1390.3026,-252 1191.6974,-252 1191.6974,-216 1390.3026,-216 1390.3026,-252"/>
<text text-anchor="middle" x="1291" y="-229.8" font-family="Times,serif" font-size="14.00" fill="#000000">AmapMarkerClustererDirective </text>
</g>
<!-- NgxAmapModule&#45;&gt;AmapMarkerClustererDirective  -->
<g id="edge23" class="edge">
<title>NgxAmapModule&#45;&gt;AmapMarkerClustererDirective </title>
<path fill="none" stroke="#000000" stroke-dasharray="5,2" d="M1291,-187.1061C1291,-187.1061 1291,-205.991 1291,-205.991"/>
<polygon fill="#000000" stroke="#000000" points="1287.5001,-205.9909 1291,-215.991 1294.5001,-205.991 1287.5001,-205.9909"/>
</g>
<!-- AmapMarkerDirective  -->
<g id="node25" class="node">
<title>AmapMarkerDirective </title>
<polygon fill="#fb8072" stroke="#000000" points="1173.4896,-252 1026.5104,-252 1026.5104,-216 1173.4896,-216 1173.4896,-252"/>
<text text-anchor="middle" x="1100" y="-229.8" font-family="Times,serif" font-size="14.00" fill="#000000">AmapMarkerDirective </text>
</g>
<!-- NgxAmapModule&#45;&gt;AmapMarkerDirective  -->
<g id="edge24" class="edge">
<title>NgxAmapModule&#45;&gt;AmapMarkerDirective </title>
<path fill="none" stroke="#000000" stroke-dasharray="5,2" d="M1232.0395,-185C1169.4096,-185 1079.3351,-185 1079.3351,-185 1079.3351,-185 1079.3351,-205.7542 1079.3351,-205.7542"/>
<polygon fill="#000000" stroke="#000000" points="1075.8352,-205.7542 1079.3351,-215.7542 1082.8352,-205.7542 1075.8352,-205.7542"/>
</g>
<!-- AmapPolygonDirective  -->
<g id="node26" class="node">
<title>AmapPolygonDirective </title>
<polygon fill="#fb8072" stroke="#000000" points="1008.4685,-252 855.5315,-252 855.5315,-216 1008.4685,-216 1008.4685,-252"/>
<text text-anchor="middle" x="932" y="-229.8" font-family="Times,serif" font-size="14.00" fill="#000000">AmapPolygonDirective </text>
</g>
<!-- NgxAmapModule&#45;&gt;AmapPolygonDirective  -->
<g id="edge25" class="edge">
<title>NgxAmapModule&#45;&gt;AmapPolygonDirective </title>
<path fill="none" stroke="#000000" stroke-dasharray="5,2" d="M1231.9514,-183C1125.6638,-183 913.0887,-183 913.0887,-183 913.0887,-183 913.0887,-205.8757 913.0887,-205.8757"/>
<polygon fill="#000000" stroke="#000000" points="909.5888,-205.8757 913.0887,-215.8757 916.5888,-205.8757 909.5888,-205.8757"/>
</g>
<!-- AmapPolylineDirective  -->
<g id="node27" class="node">
<title>AmapPolylineDirective </title>
<polygon fill="#fb8072" stroke="#000000" points="838.4643,-252 685.5357,-252 685.5357,-216 838.4643,-216 838.4643,-252"/>
<text text-anchor="middle" x="762" y="-229.8" font-family="Times,serif" font-size="14.00" fill="#000000">AmapPolylineDirective </text>
</g>
<!-- NgxAmapModule&#45;&gt;AmapPolylineDirective  -->
<g id="edge26" class="edge">
<title>NgxAmapModule&#45;&gt;AmapPolylineDirective </title>
<path fill="none" stroke="#000000" stroke-dasharray="5,2" d="M1232.0642,-180C1095.3845,-180 768.375,-180 768.375,-180 768.375,-180 768.375,-205.7181 768.375,-205.7181"/>
<polygon fill="#000000" stroke="#000000" points="764.8751,-205.718 768.375,-215.7181 771.8751,-205.7181 764.8751,-205.718"/>
</g>
<!-- AmapRectangleDirective  -->
<g id="node28" class="node">
<title>AmapRectangleDirective </title>
<polygon fill="#fb8072" stroke="#000000" points="667.771,-252 506.229,-252 506.229,-216 667.771,-216 667.771,-252"/>
<text text-anchor="middle" x="587" y="-229.8" font-family="Times,serif" font-size="14.00" fill="#000000">AmapRectangleDirective </text>
</g>
<!-- NgxAmapModule&#45;&gt;AmapRectangleDirective  -->
<g id="edge27" class="edge">
<title>NgxAmapModule&#45;&gt;AmapRectangleDirective </title>
<path fill="none" stroke="#000000" stroke-dasharray="5,2" d="M1231.9491,-178C1063.8641,-178 594.875,-178 594.875,-178 594.875,-178 594.875,-205.973 594.875,-205.973"/>
<polygon fill="#000000" stroke="#000000" points="591.3751,-205.973 594.875,-215.973 598.3751,-205.973 591.3751,-205.973"/>
</g>
<!-- AmapTextDirective  -->
<g id="node29" class="node">
<title>AmapTextDirective </title>
<polygon fill="#fb8072" stroke="#000000" points="487.9532,-252 356.0468,-252 356.0468,-216 487.9532,-216 487.9532,-252"/>
<text text-anchor="middle" x="422" y="-229.8" font-family="Times,serif" font-size="14.00" fill="#000000">AmapTextDirective </text>
</g>
<!-- NgxAmapModule&#45;&gt;AmapTextDirective  -->
<g id="edge28" class="edge">
<title>NgxAmapModule&#45;&gt;AmapTextDirective </title>
<path fill="none" stroke="#000000" stroke-dasharray="5,2" d="M1231.9489,-175C1037.8481,-175 431.875,-175 431.875,-175 431.875,-175 431.875,-205.9775 431.875,-205.9775"/>
<polygon fill="#000000" stroke="#000000" points="428.3751,-205.9774 431.875,-215.9775 435.3751,-205.9775 428.3751,-205.9774"/>
</g>
<!-- AmapToolBarDirective  -->
<g id="node30" class="node">
<title>AmapToolBarDirective </title>
<polygon fill="#fb8072" stroke="#000000" points="338.4503,-252 185.5497,-252 185.5497,-216 338.4503,-216 338.4503,-252"/>
<text text-anchor="middle" x="262" y="-229.8" font-family="Times,serif" font-size="14.00" fill="#000000">AmapToolBarDirective </text>
</g>
<!-- NgxAmapModule&#45;&gt;AmapToolBarDirective  -->
<g id="edge29" class="edge">
<title>NgxAmapModule&#45;&gt;AmapToolBarDirective </title>
<path fill="none" stroke="#000000" stroke-dasharray="5,2" d="M1231.9187,-173C1014.8393,-173 273.875,-173 273.875,-173 273.875,-173 273.875,-205.698 273.875,-205.698"/>
<polygon fill="#000000" stroke="#000000" points="270.3751,-205.698 273.875,-215.698 277.3751,-205.698 270.3751,-205.698"/>
</g>
<!-- NgxAmapComponent  -->
<g id="node31" class="node">
<title>NgxAmapComponent </title>
<polygon fill="#fb8072" stroke="#000000" points="167.6509,-252 24.3491,-252 24.3491,-216 167.6509,-216 167.6509,-252"/>
<text text-anchor="middle" x="96" y="-229.8" font-family="Times,serif" font-size="14.00" fill="#000000">NgxAmapComponent </text>
</g>
<!-- NgxAmapModule&#45;&gt;NgxAmapComponent  -->
<g id="edge30" class="edge">
<title>NgxAmapModule&#45;&gt;NgxAmapComponent </title>
<path fill="none" stroke="#000000" stroke-dasharray="5,2" d="M1232.0237,-171C993.1035,-171 109.875,-171 109.875,-171 109.875,-171 109.875,-205.7778 109.875,-205.7778"/>
<polygon fill="#000000" stroke="#000000" points="106.3751,-205.7778 109.875,-215.7778 113.3751,-205.7778 106.3751,-205.7778"/>
</g>
</g>
</svg>
